<svg width="17" height="15" viewBox="0 0 17 15" fill="none" xmlns="http://www.w3.org/2000/svg">
<path fill-rule="evenodd" clip-rule="evenodd" d="M9.04216 1.00903C9.1265 0.916599 9.22918 0.842765 9.34366 0.792247C9.45813 0.74173 9.58189 0.715637 9.70701 0.715637C9.83214 0.715637 9.9559 0.74173 10.0704 0.792247C10.1848 0.842765 10.2875 0.916599 10.3719 1.00903L16.0085 7.00675C16.1858 7.1997 16.2842 7.45222 16.2842 7.7143C16.2842 7.97637 16.1858 8.22889 16.0085 8.42185L10.3719 14.4196C10.2874 14.5118 10.1847 14.5855 10.0702 14.6359C9.95577 14.6863 9.83208 14.7123 9.70701 14.7123C9.58195 14.7123 9.45826 14.6863 9.34379 14.6359C9.22933 14.5855 9.12661 14.5118 9.04216 14.4196C8.86511 14.2265 8.76689 13.974 8.76689 13.712C8.76689 13.45 8.86511 13.1976 9.04216 13.0045L14.0153 7.715L9.04216 2.42413C8.86481 2.23118 8.76639 1.97866 8.76639 1.71658C8.76639 1.45451 8.86481 1.20199 9.04216 1.00903V1.00903Z" fill="#221F20"/>
<path fill-rule="evenodd" clip-rule="evenodd" d="M0.284233 7.7136C0.294805 7.45667 0.405956 7.2142 0.593707 7.03849C0.781457 6.86279 1.03076 6.76794 1.28782 6.7744H14.3344C14.4639 6.7644 14.594 6.78126 14.7166 6.82392C14.8392 6.86659 14.9516 6.93413 15.0469 7.02232C15.1422 7.11051 15.2182 7.21744 15.2702 7.3364C15.3222 7.45536 15.349 7.58378 15.349 7.7136C15.349 7.84342 15.3222 7.97184 15.2702 8.0908C15.2182 8.20975 15.1422 8.31668 15.0469 8.40487C14.9516 8.49306 14.8392 8.56061 14.7166 8.60327C14.594 8.64594 14.4639 8.6628 14.3344 8.65279H1.28782C1.03076 8.65926 0.781457 8.5644 0.593707 8.3887C0.405956 8.21299 0.294805 7.97052 0.284233 7.7136Z" fill="#221F20"/>
</svg>
